<svg width="36" height="36" viewBox="0 0 36 36" fill="none" xmlns="http://www.w3.org/2000/svg">
<g id="Component 3">
<circle id="Ellipse 27" cx="18" cy="18" r="18" fill="transparent"/>
<path id="Arrow 5" d="M13 17.5C12.7239 17.5 12.5 17.7239 12.5 18C12.5 18.2761 12.7239 18.5 13 18.5V17.5ZM23.3536 18.3536C23.5488 18.1583 23.5488 17.8417 23.3536 17.6464L20.1716 14.4645C19.9763 14.2692 19.6597 14.2692 19.4645 14.4645C19.2692 14.6597 19.2692 14.9763 19.4645 15.1716L22.2929 18L19.4645 20.8284C19.2692 21.0237 19.2692 21.3403 19.4645 21.5355C19.6597 21.7308 19.9763 21.7308 20.1716 21.5355L23.3536 18.3536ZM13 18.5H23V17.5H13V18.5Z" fill="transparent"/>
</g>
</svg>
