<svg width="27" height="27" viewBox="0 0 27 27" fill="none" xmlns="http://www.w3.org/2000/svg">
<g id="Group 406">
<path id="Vector" fill-rule="evenodd" clip-rule="evenodd" d="M13.4999 0C20.9558 0 27 6.04405 27 13.5001C27 20.9559 20.9561 27 13.4999 27C6.04417 27 0 20.9561 0 13.5001C0 6.04419 6.04391 0 13.4999 0Z" fill="#CFCFCF"/>
<path id="Vector_2" d="M8.43796 11.5047C8.07027 11.7347 7.59101 11.8286 7 11.7869V10.9928C7.48588 10.9928 7.84365 10.9301 8.07343 10.8047C8.30329 10.6793 8.49035 10.4458 8.63479 10.1046H9.36354V16.8962H8.43779V11.5048L8.43796 11.5047ZM13.9038 11.954C13.9038 11.6267 13.8086 11.3758 13.6182 11.2018C13.4279 11.0276 13.1553 10.9406 12.8007 10.9406C12.479 10.9406 12.2214 11.0311 12.0275 11.2121C11.8339 11.3933 11.7371 11.6301 11.7371 11.9227C11.7371 12.1177 11.783 12.3126 11.8751 12.5076L11.0478 12.8629C10.8901 12.5982 10.8114 12.2778 10.8114 11.9016C10.8114 11.3233 10.9953 10.8619 11.363 10.5172C11.7306 10.1723 12.2197 10 12.8304 10C13.4541 10 13.9497 10.1724 14.3174 10.5172C14.6851 10.8619 14.8689 11.3235 14.8689 11.9016C14.8689 12.3752 14.7327 12.8158 14.4602 13.2233C14.1876 13.6308 13.7528 14.047 13.1553 14.4719C12.4659 14.9597 12.0391 15.3843 11.8751 15.7465C12.0327 15.649 12.2033 15.6004 12.3871 15.6004C12.525 15.6004 12.6661 15.6211 12.8107 15.663C12.955 15.7048 13.1258 15.7675 13.3228 15.851C13.4409 15.8997 13.5608 15.9433 13.6822 15.9814C13.8037 16.0198 13.9038 16.0388 13.9826 16.0388C14.1269 16.0388 14.2485 15.9848 14.347 15.8768C14.4454 15.7689 14.5077 15.6207 14.5339 15.4327L15.3119 15.8612C15.2857 16.2165 15.1542 16.4951 14.918 16.6969C14.6816 16.8991 14.3633 17 13.9628 17C13.7528 17 13.5639 16.9756 13.3965 16.9268C13.2291 16.8781 13.0436 16.805 12.8401 16.7073C12.6563 16.6238 12.5003 16.5628 12.3723 16.5244C12.2443 16.4861 12.1048 16.4669 11.9537 16.4669C11.7766 16.4669 11.6583 16.4965 11.5992 16.5557C11.5402 16.615 11.5073 16.7072 11.5007 16.8326V16.8953H10.6637L10.6439 16.6133C10.6439 16.1467 10.8211 15.6625 11.1757 15.1608C11.5303 14.6592 12.0292 14.1822 12.6728 13.7293C13.0995 13.4229 13.4113 13.1268 13.6084 12.8413C13.8053 12.5557 13.9038 12.2597 13.9038 11.9531V11.954ZM15.8636 13.0094H17.4886V11.2541H18.375V13.0094H20V13.8871H18.375V15.6423H17.4886V13.8871H15.8636V13.0094Z" fill="white"/>
</g>
</svg>
