<svg width="36" height="36" viewBox="0 0 36 36" fill="none" xmlns="http://www.w3.org/2000/svg">
<circle cx="18" cy="18" r="18" transform="rotate(90 18 18)" fill="#675DD3"/>
<path d="M18.5 13C18.5 12.7239 18.2761 12.5 18 12.5C17.7239 12.5 17.5 12.7239 17.5 13L18.5 13ZM17.6464 23.3536C17.8417 23.5488 18.1583 23.5488 18.3536 23.3536L21.5355 20.1716C21.7308 19.9763 21.7308 19.6597 21.5355 19.4645C21.3403 19.2692 21.0237 19.2692 20.8284 19.4645L18 22.2929L15.1716 19.4645C14.9763 19.2692 14.6597 19.2692 14.4645 19.4645C14.2692 19.6597 14.2692 19.9763 14.4645 20.1716L17.6464 23.3536ZM17.5 13L17.5 23L18.5 23L18.5 13L17.5 13Z" fill="white"/>
</svg>
